<?xml version="1.0" encoding="UTF-8" standalone="no"?>
<!DOCTYPE svg PUBLIC "-//W3C//DTD SVG 1.1//EN" "http://www.w3.org/Graphics/SVG/1.1/DTD/svg11.dtd">
<svg width="100%" height="100%" viewBox="0 0 40 40" version="1.1" xmlns="http://www.w3.org/2000/svg" xmlns:xlink="http://www.w3.org/1999/xlink" xml:space="preserve" xmlns:serif="http://www.serif.com/" style="fill-rule:evenodd;clip-rule:evenodd;stroke-linecap:round;stroke-linejoin:round;stroke-miterlimit:1.5;"><path width="50%" fill="none" d="M0 0h24v24H0z"/><path d="M12 2c5.523 0 10 4.477 10 10v3.764a2 2 0 0 1-1.106 1.789L18 19v1a3 3 0 0 1-2.824 2.995L14.95 23a2.5 2.5 0 0 0 .044-.33L15 22.5V22a2 2 0 0 0-1.85-1.995L13 20h-2a2 2 0 0 0-1.995 1.85L9 22v.5c0 .171.017.339.05.5H9a3 3 0 0 1-3-3v-1l-2.894-1.447A2 2 0 0 1 2 15.763V12C2 6.477 6.477 2 12 2zm-4 9a2 2 0 1 0 0 4 2 2 0 0 0 0-4zm8 0a2 2 0 1 0 0 4 2 2 0 0 0 0-4z"/><g transform="matrix(1.02541,0.8,0.8,0.1001,2.55651,1.178215)">
	<path widht="50%" fill="none" d="M0 0H24V24H0z"/><path d="M9 7.539L15 21.539 18.659 13 23 13 23 11 17.341 11 15 16.461 9 2.461 5.341 11 1 11 1 13 6.659 13z"/>
    </g><path d="M32.114,11.35C32.114,11.35 29.196,13.155 30.864,16.589C32.532,20.023 34.677,19.25 36,18.588C37.322,17.927 38.02,14.778 35.931,12.665C33.843,10.551 32.114,11.35 32.114,11.35Z"/>
    <path d="M19.212,17.136C19.212,17.136 12.651,19.306 12.84,25.174C12.888,28.022 10.569,28.548 11.073,32.567C11.727,34.322 12.649,36.92 15.89,36.85C19.131,36.781 19.603,34.354 23.377,32.97C27.151,31.586 31.009,33.828 33.802,31.213C36.596,28.598 35.188,24.468 31.876,22.731C28.564,20.995 24.793,16.327 19.212,17.136Z" style="stroke:black;stroke-width:1px;"/>
</svg>
